Coordinates
version=1
nRows=104
nColumns=11
inDegrees=no

Units are S.I. units (second, meters, Newtons, ...)
If the header above contains a line with 'inDegrees', this indicates whether rotational values are in degrees (yes) or radians (no).

endheader
time	pelvis_tilt	pelvis_tx	pelvis_ty	hip_flexion_r	knee_angle_r	ankle_angle_r	hip_flexion_l	knee_angle_l	ankle_angle_l	lumbar_extension
210.01	-0.0130616	0.0599105	0.901597	-0.0854855	-0.849003	-0.109979	0.482412	-0.452273	0.0622267	0
210.02	-0.0111139	0.0604718	0.902905	-0.0525264	-0.911052	-0.163432	0.466351	-0.459044	0.0883465	0
210.03	0.00288631	0.062916	0.905253	-0.0394639	-0.959295	-0.206588	0.436235	-0.468571	0.112193	0
210.04	-0.00818637	0.0598812	0.906437	0.0125708	-1.017	-0.227165	0.435698	-0.470494	0.129015	0
210.05	0.0070199	0.0621193	0.909425	0.0247475	-1.05967	-0.21485	0.398661	-0.467892	0.14575	0
210.06	0.00456402	0.0606015	0.911632	0.0635803	-1.10771	-0.178714	0.382451	-0.461574	0.15878	0
210.07	0.00172709	0.0595557	0.914366	0.10162	-1.14635	-0.138666	0.3652	-0.450778	0.167221	0
210.08	0.00253107	0.0595613	0.917332	0.133618	-1.17591	-0.0978606	0.344318	-0.441811	0.173669	0
210.09	-0.00987321	0.0555778	0.91957	0.186733	-1.20525	-0.0745286	0.338961	-0.427705	0.173398	0
210.1	0.00679874	0.0579531	0.924102	0.190025	-1.20783	-0.0607582	0.293199	-0.410898	0.176405	0
210.11	0.00825089	0.0574395	0.927154	0.218581	-1.21511	-0.0497443	0.268433	-0.394124	0.180538	0
210.12	0.00632704	0.055788	0.929781	0.251127	-1.21907	-0.0360164	0.247681	-0.377216	0.182296	0
210.13	0.00354988	0.0540011	0.932318	0.283382	-1.21747	-0.0195447	0.226569	-0.357969	0.179769	0
210.14	-0.0111962	0.0500217	0.933783	0.332857	-1.21543	-0.00237893	0.220567	-0.336173	0.178965	0
210.15	-0.0112156	0.0489002	0.935946	0.356994	-1.20091	0.00988973	0.196233	-0.317637	0.182354	0
210.16	-0.0119952	0.0473185	0.937607	0.381089	-1.18107	0.0201912	0.174272	-0.300254	0.183169	0
210.17	0.00299562	0.0480493	0.940265	0.378679	-1.15169	0.032195	0.132154	-0.286216	0.187307	0
210.18	0.00421205	0.0468485	0.941674	0.395619	-1.12081	0.0446196	0.106959	-0.267396	0.18841	0
210.19	0.00342397	0.045254	0.942437	0.41286	-1.08421	0.0542087	0.0855087	-0.24995	0.191763	0
210.2	0.00268918	0.0439878	0.943013	0.426892	-1.04217	0.0652849	0.0630464	-0.231472	0.193836	0
210.21	-0.00104462	0.0418751	0.942917	0.444337	-0.997525	0.07055	0.0472692	-0.217986	0.196151	0
210.22	-0.0193327	0.0376982	0.941459	0.481703	-0.949779	0.0746934	0.0517636	-0.204257	0.199056	0
210.23	-0.0228885	0.0355821	0.940725	0.492971	-0.893679	0.075804	0.0363512	-0.193889	0.209712	0
210.24	-0.0239399	0.0343371	0.939823	0.496685	-0.830958	0.0783014	0.0162679	-0.181887	0.219395	0
210.25	-0.0259197	0.0332139	0.938553	0.498924	-0.762924	0.0762358	-0.0011151	-0.172758	0.229469	0
210.26	-0.0273435	0.0322981	0.936984	0.498088	-0.6912	0.0637475	-0.0194666	-0.162876	0.23975	0
210.27	-0.0281641	0.0314731	0.935117	0.495643	-0.618934	0.0437816	-0.0391075	-0.152165	0.249516	0
210.28	-0.0287829	0.0309115	0.933189	0.491222	-0.545322	0.023951	-0.0584623	-0.142112	0.257453	0
210.29	-0.0280758	0.0313084	0.931293	0.482702	-0.469104	0.00908785	-0.0785514	-0.134228	0.270442	0
210.3	-0.0305425	0.0302452	0.928877	0.476729	-0.393931	0.000979421	-0.0959529	-0.125629	0.28332	0
210.31	-0.0110864	0.0337702	0.92749	0.442751	-0.321326	0.00626572	-0.138884	-0.122676	0.300295	0
210.32	-0.0284967	0.0309143	0.923401	0.455745	-0.250918	0.0187781	-0.137724	-0.112325	0.306853	0
210.33	-0.0314758	0.0303643	0.920389	0.455424	-0.192486	0.0267384	-0.149366	-0.113264	0.316923	0
210.34	-0.0310765	0.0308678	0.917655	0.451632	-0.140769	0.0394381	-0.167049	-0.110777	0.324357	0
210.35	-0.0323991	0.0309533	0.91484	0.45123	-0.0960262	0.0505352	-0.1808	-0.112081	0.334594	0
210.36	-0.0326234	0.0311874	0.912276	0.448172	-0.0541808	0.0545208	-0.19499	-0.115971	0.344896	0
210.37	-0.0334226	0.0310855	0.909812	0.448183	-0.0240694	0.056091	-0.208112	-0.119331	0.349659	0
210.38	-0.0101867	0.0345563	0.908995	0.419897	-0.00912519	0.0681084	-0.250621	-0.127529	0.358629	0
210.39	-0.0104825	0.0347888	0.906909	0.425938	-0.0125379	0.0816502	-0.263614	-0.132566	0.361243	0
210.4	-0.0133003	0.0344002	0.904992	0.438648	-0.02995	0.086084	-0.269623	-0.144461	0.364005	0
210.41	-0.0121688	0.034999	0.903634	0.446986	-0.056531	0.082995	-0.280309	-0.157774	0.363944	0
210.42	-0.0124884	0.0357142	0.902391	0.455733	-0.0867687	0.0730784	-0.286211	-0.177938	0.361631	0
210.43	-0.0134083	0.0361914	0.901387	0.464029	-0.119372	0.0585883	-0.289726	-0.199832	0.359233	0
210.44	-0.0130891	0.0369693	0.900649	0.469311	-0.152195	0.0457343	-0.295541	-0.21915	0.351295	0
210.45	-0.0127644	0.0380406	0.900042	0.471111	-0.179951	0.03185	-0.30091	-0.238711	0.334324	0
210.46	-0.0119089	0.0395323	0.899567	0.470054	-0.203372	0.0181569	-0.30673	-0.259065	0.315992	0
210.47	-0.0113306	0.041198	0.899257	0.469397	-0.225681	-0.00439508	-0.310129	-0.282933	0.296309	0
210.48	-0.00425899	0.0439114	0.899548	0.459706	-0.247101	-0.0257957	-0.321004	-0.307277	0.27315	0
210.49	-0.0048434	0.0452679	0.899687	0.461966	-0.274605	-0.0446516	-0.314241	-0.344884	0.242624	0
210.5	-0.0175807	0.0457871	0.899349	0.483507	-0.312018	-0.0409834	-0.288708	-0.384249	0.203855	0
210.51	0.00125455	0.0494823	0.901166	0.464961	-0.3557	-0.0146224	-0.29863	-0.433001	0.164159	0
210.52	0.00265445	0.0509151	0.902166	0.466703	-0.394785	0.00997881	-0.279011	-0.490657	0.115078	0
210.53	0.00275233	0.0517873	0.903363	0.463121	-0.419619	0.0278605	-0.252969	-0.55323	0.0628493	0
210.54	0.00186688	0.052438	0.904612	0.455245	-0.433096	0.0452598	-0.222103	-0.618717	0.00885556	0
210.55	0.00221021	0.0534005	0.905843	0.443002	-0.441994	0.0636415	-0.190065	-0.686345	-0.0447209	0
210.56	0.00331359	0.0543867	0.907025	0.429017	-0.450099	0.0844532	-0.157024	-0.754037	-0.10315	0
210.57	0.00384894	0.0550011	0.908215	0.416105	-0.457916	0.104245	-0.121243	-0.820687	-0.164217	0
210.58	0.00296231	0.0549058	0.909211	0.405173	-0.465321	0.120334	-0.0815189	-0.884057	-0.225682	0
210.59	-0.0106358	0.0527847	0.909492	0.408009	-0.465298	0.134604	-0.0229089	-0.945407	-0.278461	0
210.6	-0.00968804	0.0530609	0.910916	0.38996	-0.464788	0.152308	0.0111869	-0.996692	-0.300916	0
210.61	-0.00767949	0.0533273	0.912918	0.370237	-0.462155	0.165106	0.0440647	-1.0468	-0.285512	0
210.62	0.00647521	0.0555051	0.915813	0.335195	-0.46086	0.177198	0.0573332	-1.08707	-0.238338	0
210.63	0.00783018	0.0549213	0.917699	0.314566	-0.454129	0.190662	0.090763	-1.12826	-0.183724	0
210.64	0.010001	0.0546313	0.919974	0.292269	-0.446192	0.19863	0.121356	-1.15831	-0.14087	0
210.65	0.012841	0.054547	0.92247	0.267682	-0.435766	0.20544	0.150197	-1.17969	-0.109798	0
210.66	0.0140267	0.0538928	0.924682	0.245534	-0.424708	0.215008	0.18113	-1.19482	-0.0885188	0
210.67	0.015408	0.0533717	0.926969	0.221207	-0.410263	0.222535	0.210196	-1.20296	-0.0687928	0
210.68	0.0153767	0.0522899	0.928862	0.198987	-0.395508	0.227661	0.240651	-1.20589	-0.0507453	0
210.69	0.00126472	0.0484139	0.92987	0.193525	-0.376178	0.226892	0.291791	-1.20808	-0.0361214	0
210.7	0.001708	0.0479311	0.931902	0.168906	-0.358023	0.225512	0.316562	-1.19592	-0.0207548	0
210.71	0.0193185	0.050015	0.934983	0.122948	-0.34371	0.230588	0.3122	-1.17117	-0.00760045	0
210.72	0.0199038	0.0487527	0.936431	0.100879	-0.328541	0.236501	0.334258	-1.14793	0.00416634	0
210.73	0.0215807	0.0476428	0.937791	0.0770693	-0.312859	0.240588	0.353181	-1.11889	0.0158798	0
210.74	0.0183824	0.0456932	0.938455	0.0593895	-0.297368	0.243815	0.377414	-1.08664	0.0293812	0
210.75	0.0167093	0.0439478	0.938735	0.0427053	-0.288346	0.249457	0.397721	-1.04984	0.0410638	0
210.76	0.0129416	0.0418981	0.938635	0.0298438	-0.281705	0.254722	0.419584	-1.0095	0.0499475	0
210.77	-0.0064038	0.0377969	0.937131	0.0372497	-0.271349	0.256496	0.4618	-0.965301	0.0561948	0
210.78	-0.0102046	0.0359875	0.936526	0.0255995	-0.267124	0.264075	0.476335	-0.910478	0.0611883	0
210.79	-0.0128322	0.0346445	0.935797	0.01081	-0.260775	0.272909	0.48659	-0.852034	0.0659394	0
210.8	-0.0136393	0.0335474	0.934975	-0.00734626	-0.252844	0.280491	0.49097	-0.787033	0.069141	0
210.81	-0.0159595	0.0324678	0.933817	-0.0240442	-0.243399	0.285292	0.493589	-0.714292	0.0742151	0
210.82	-0.019091	0.0313362	0.932418	-0.0387175	-0.235699	0.287978	0.495683	-0.637874	0.074026	0
210.83	-0.0209062	0.030563	0.930907	-0.054264	-0.229819	0.294381	0.49486	-0.561042	0.0633369	0
210.84	-0.0225066	0.0298776	0.929298	-0.0701866	-0.224303	0.30461	0.487779	-0.475316	0.0568421	0
210.85	-0.0240942	0.0294356	0.927114	-0.0847641	-0.222535	0.316491	0.470593	-0.372424	0.0545229	0
210.86	-0.0224541	0.0303229	0.924291	-0.106747	-0.216599	0.325452	0.449961	-0.27552	0.0562603	0
210.87	-0.0210113	0.0312855	0.921876	-0.131141	-0.204807	0.328437	0.437567	-0.204124	0.0682447	0
210.88	-0.0207865	0.0318642	0.91975	-0.151458	-0.198293	0.331462	0.430962	-0.147865	0.0873932	0
210.89	-0.0221875	0.03214	0.917481	-0.165704	-0.198247	0.338355	0.430113	-0.102714	0.10522	0
210.9	-0.0230602	0.0321752	0.915147	-0.180611	-0.198625	0.3446	0.429117	-0.0642408	0.117955	0
210.91	-0.0240446	0.0322549	0.912843	-0.194745	-0.20102	0.348378	0.429393	-0.0348257	0.123858	0
210.92	-0.00644639	0.0348973	0.911851	-0.230607	-0.209748	0.354235	0.408818	-0.0203016	0.131654	0
210.93	-0.00469694	0.0357246	0.909894	-0.245775	-0.216204	0.354	0.414979	-0.0262891	0.136459	0
210.94	-0.0039629	0.0363516	0.907772	-0.256793	-0.227433	0.354434	0.425455	-0.0471367	0.139219	0
210.95	-0.00486171	0.0366057	0.905806	-0.26415	-0.240648	0.351608	0.439486	-0.077405	0.130133	0
210.96	-0.00532047	0.0368187	0.904224	-0.27003	-0.257947	0.345927	0.453353	-0.113713	0.10996	0
210.97	-0.00507902	0.0374764	0.902596	-0.275684	-0.278341	0.338881	0.462882	-0.147508	0.083671	0
210.98	0.000738366	0.0398688	0.901489	-0.289217	-0.296533	0.327252	0.457816	-0.17125	0.0681176	0
210.99	-0.000195606	0.0404855	0.90052	-0.291978	-0.318951	0.310431	0.461167	-0.196353	0.0497151	0
211	0.00229286	0.0423569	0.900053	-0.29618	-0.346483	0.288409	0.462434	-0.225106	0.0265356	0
211.01	0.0034742	0.0440437	0.899794	-0.293707	-0.382519	0.25748	0.465638	-0.256323	0.00377639	0
211.02	0.00546565	0.0455458	0.89993	-0.286926	-0.424663	0.220662	0.468449	-0.2909	-0.00695909	0
211.03	0.00894593	0.0471391	0.90067	-0.275149	-0.475752	0.172666	0.46623	-0.321645	-0.00673175	0
211.04	0.00863981	0.0481711	0.901636	-0.253863	-0.531973	0.118839	0.466926	-0.350913	-0.0018321	0
